<svg width="21" height="21" viewBox="0 0 21 21" fill="none" xmlns="http://www.w3.org/2000/svg">
<path d="M9 1.02472C3.74856 1.02472 1 5.28086 1 10.5124C1 15.7438 5.27237 20 10.5238 20C13.0099 20 15.3624 19.0514 17.1479 17.3287C18.9292 15.6101 19.9155 14.4648 20 11.9999" stroke="#004A84"/>
<path d="M11.0238 0.704926C11.0238 0.6071 11.1104 0.5 11.2523 0.5C16.3669 0.5 20.5 4.5212 20.5 9.42822C20.5 9.52059 20.4981 9.61863 20.4939 9.73827L20.9936 9.75573L20.4939 9.73792C20.4905 9.83378 20.4037 9.93639 20.2653 9.93639H11.2523C11.1104 9.93639 11.0238 9.82926 11.0238 9.73153V0.704926Z" stroke="#004A84"/>
</svg>
