<svg width="157" height="157" xmlns="http://www.w3.org/2000/svg">

 <g>
  <title>background</title>
  <rect fill="none" id="canvas_background" height="602" width="802" y="-1" x="-1"/>
 </g>
 <g>
  <title>Layer 1</title>
  <path id="svg_1" fill="#29ABE2" d="m51.9511,4.51465c-13.3414,4.75321 -25.154,13.00825 -34.1962,23.89695c-9.04209,10.8886 -14.97969,24.0088 -17.18856,37.9814c-0.10495,0.7108 -0.04539,1.436 0.17407,2.1202c0.21947,0.6842 0.59301,1.3089 1.09196,1.8265c0.49895,0.5175 1.11003,0.914 1.78632,1.159c0.67628,0.245 1.39978,0.3317 2.11495,0.2539c1.00201,-0.1076 1.94004,-0.5437 2.66726,-1.2405c0.72722,-0.6967 1.20259,-1.6147 1.35175,-2.6101c1.92295,-12.2558 7.10025,-23.773 14.99285,-33.3526c7.8927,-9.5796 18.2122,-16.8714 29.8846,-21.1166c1.0868,-0.3832 2.0035,-1.1369 2.589,-2.1283c0.5856,-0.9913 0.8024,-2.15706 0.6124,-3.29229l-0.0115,-0.06076c-0.1101,-0.63753 -0.3582,-1.24335 -0.727,-1.77523c-0.3688,-0.53188 -0.8494,-0.97709 -1.4082,-1.30434c-0.5589,-0.32724 -1.1825,-0.52873 -1.8273,-0.59044c-0.6449,-0.0617 -1.2955,0.01789 -1.9064,0.23321zm26.2878,-4.51465c-2.3732,0 -4.7226,0.10493 -7.0482,0.3144c-0.6596,0.06087 -1.2993,0.25739 -1.8789,0.57756c-0.5796,0.32016 -1.0865,0.7569 -1.4886,1.2825c-0.4021,0.52559 -0.6908,1.12871 -0.8478,1.77131c-0.157,0.6426 -0.1789,1.31076 -0.0644,1.96225c0.2013,1.11657 0.8175,2.1159 1.7251,2.79821c0.9077,0.68231 2.0399,0.99725 3.1701,0.8816c2.1174,-0.19609 4.267,-0.29816 6.4304,-0.29816c13.4422,0.00002 26.5944,3.90373 37.8544,11.23563c11.26,7.332 20.142,17.7758 25.564,30.0592c5.422,12.2834 7.151,25.8763 4.974,39.1231c-2.176,13.2464 -8.163,25.5754 -17.231,35.4854c-9.068,9.909 -20.826,16.971 -33.8415,20.326c-13.0157,3.355 -26.7274,2.857 -39.465,-1.432c-12.7376,-4.289 -23.9514,-12.185 -32.2753,-22.726c-8.324,-10.54 -13.3989,-23.2704 -14.6067,-36.64c-0.05182,-0.5197 -0.20628,-1.0241 -0.45448,-1.4838c-0.24819,-0.4597 -0.58517,-0.8657 -0.99147,-1.1946c-0.4063,-0.3289 -0.87384,-0.5739 -1.37561,-0.7212c-0.50176,-0.1473 -1.0278,-0.1939 -1.54767,-0.1369l-0.68898,0.0734c-1.22647,0.1341 -2.34954,0.7487 -3.12281,1.7088c-0.77326,0.9601 -1.13356,2.1874 -1.00184,3.4125c1.52667,15.1128 7.41106,29.4588 16.93966,41.2978c9.5287,11.84 22.2922,20.664 36.743,25.404c14.4509,4.739 29.9683,5.19 44.6706,1.298c14.7021,-3.892 27.9581,-11.961 38.1601,-23.227c10.202,-11.266 16.912,-25.246 19.316,-40.2442c2.404,-14.9985 0.399,-30.3715 -5.771,-44.2548c-6.171,-13.8833 -16.243,-25.6807 -28.994,-33.9615c-12.751,-8.28087 -27.6339,-12.68957 -42.8441,-12.6915l-0.008,0z"/>
  <path id="svg_2" fill="#4476E6" d="m74.3197,15.5392c-9.4642,0.5851 -18.678,3.2741 -26.9683,7.8706c-8.2903,4.5964 -15.4477,10.9841 -20.9494,18.6966c-5.5016,7.7125 -9.2086,16.5549 -10.8501,25.8813c-1.6414,9.3264 -1.1759,18.9012 1.3626,28.0249c0.1864,0.6566 0.5058,1.2681 0.9383,1.7965c0.4325,0.5284 0.969,0.9624 1.5762,1.2755c0.6072,0.3131 1.2724,0.4987 1.9542,0.5448c0.6818,0.0462 1.3659,-0.0479 2.0099,-0.2763c1.0192,-0.3528 1.8647,-1.0818 2.363,-2.0373c0.4983,-0.9554 0.6118,-2.0648 0.3171,-3.1011c-2.8621,-9.7623 -2.9194,-20.1314 -0.1654,-29.9247c2.754,-9.7933 8.2084,-18.6167 15.7413,-25.4639c7.5329,-6.8471 16.841,-11.4426 26.8628,-13.262c10.0218,-1.8195 20.3538,-0.7898 29.818,2.9715c9.4641,3.7613 17.6791,10.1029 23.7091,18.3016c6.029,8.1987 9.63,17.9244 10.392,28.0681c0.761,10.1436 -1.347,20.2968 -6.084,29.3017c-4.737,9.005 -11.914,16.5 -20.71,21.628c-1.184,0.68 -2.064,1.785 -2.462,3.09c-0.398,1.305 -0.283,2.712 0.322,3.935c0.246,0.487 0.589,0.92 1.007,1.271c0.418,0.351 0.904,0.614 1.427,0.772c0.523,0.158 1.073,0.209 1.616,0.149c0.543,-0.06 1.068,-0.229 1.544,-0.498c12.632,-6.99 22.507,-18.062 28.004,-31.399c5.497,-13.336 6.288,-28.1427 2.243,-41.9872c-4.045,-13.8445 -12.685,-25.9034 -24.5,-34.1955c-11.816,-8.2922 -26.1044,-12.3244 -40.5183,-11.4342l0,0.0011zm3.9237,117.7098c-8.7882,0 -17.4452,-2.13 -25.2281,-6.206c-7.7829,-4.076 -14.4593,-9.977 -19.4564,-17.196c-0.6816,-0.979 -1.6664,-1.706 -2.8027,-2.07c-1.1362,-0.364 -2.3609,-0.345 -3.4853,0.054c-0.5958,0.208 -1.1363,0.549 -1.5806,0.996c-0.4443,0.448 -0.7806,0.991 -0.9836,1.587c-0.203,0.597 -0.2672,1.232 -0.1878,1.858c0.0794,0.625 0.3003,1.224 0.646,1.751c7.0097,10.589 17.0321,18.84 28.7774,23.692c11.7453,4.852 24.6759,6.082 37.1275,3.533c0.6654,-0.142 1.2894,-0.434 1.8238,-0.855c0.5345,-0.42 0.9653,-0.958 1.2593,-1.571c0.294,-0.613 0.4434,-1.285 0.4366,-1.964c-0.0067,-0.68 -0.1694,-1.349 -0.4756,-1.955c-0.4781,-0.969 -1.2609,-1.754 -2.2284,-2.235c-0.9675,-0.482 -2.0664,-0.633 -3.1284,-0.431c-3.4628,0.678 -6.9837,1.017 -10.5125,1.012l-0.0012,0z"/>
  <path id="svg_3" fill="#3CC7F7" d="m73.9591,31.8905c-9.4224,0.8604 -18.3632,4.5496 -25.6455,10.5822c-7.2824,6.0327 -12.5649,14.126 -15.1525,23.2147c-2.5876,9.0886 -2.3588,18.7467 0.6561,27.703c3.015,8.9566 8.6748,16.7916 16.2346,22.4736c0.5049,0.385 1.0916,0.648 1.7149,0.77c0.6233,0.123 1.2664,0.1 1.8796,-0.065c0.6131,-0.166 1.1799,-0.47 1.6565,-0.89c0.4766,-0.419 0.8503,-0.942 1.0921,-1.528c0.4504,-1.111 0.529,-2.338 0.2242,-3.498c-0.3048,-1.159 -0.9768,-2.189 -1.9156,-2.936c-7.1615,-5.768 -11.9467,-13.967 -13.4433,-23.0329c-1.4965,-9.0658 0.4003,-18.3646 5.3288,-26.1234c4.9284,-7.7589 12.5439,-13.435 21.3943,-15.9463c8.8505,-2.5113 18.3168,-1.6821 26.5943,2.3295c8.2774,4.0117 14.7874,10.9251 18.2874,19.4223c3.501,8.4973 3.748,17.984 0.694,26.6512c-3.055,8.6673 -9.196,15.9086 -17.2538,20.3446c-8.0578,4.435 -17.4684,5.754 -26.4374,3.705c-0.9738,-0.219 -1.9937,-0.085 -2.8781,0.377c-0.8844,0.462 -1.576,1.222 -1.9516,2.145c-0.2749,0.671 -0.399,1.394 -0.3633,2.118c0.0357,0.724 0.2302,1.431 0.5698,2.072c0.3396,0.64 0.8159,1.199 1.3953,1.635c0.5795,0.437 1.2478,0.741 1.9579,0.891c6.5997,1.385 13.4211,1.331 19.9982,-0.157c6.5772,-1.488 12.755,-4.377 18.112,-8.468c5.357,-4.091 9.767,-9.288 12.928,-15.237c3.162,-5.949 5.001,-12.5092 5.391,-19.2326c0.39,-6.7234 -0.677,-13.4517 -3.129,-19.7255c-2.452,-6.2738 -6.231,-11.9454 -11.079,-16.6272c-4.848,-4.6818 -10.65,-8.2634 -17.0114,-10.5008c-6.3609,-2.2373 -13.1304,-3.0776 -19.8462,-2.4631l-0.0023,-0.0033z"/>
  <path id="svg_5" fill="#FF7A33" d="m78.5684,86.0271c4.1101,0 7.4421,-3.3274 7.4421,-7.4319c0,-4.1045 -3.332,-7.4319 -7.4421,-7.4319c-4.1101,0 -7.4421,3.3274 -7.4421,7.4319c0,4.1045 3.332,7.4319 7.4421,7.4319z"/>
  <path id="svg_6" fill="#FF7A33" d="m51.1312,18.8763c5.0088,0 9.0692,-4.0549 9.0692,-9.05681c0,-5.00193 -4.0604,-9.05679 -9.0692,-9.05679c-5.0088,0 -9.0692,4.05486 -9.0692,9.05679c0,5.00191 4.0604,9.05681 9.0692,9.05681z"/>
  <path id="svg_7" fill="#FF7A33" d="m60.3577,125.834c5.3557,0 9.6973,-4.335 9.6973,-9.684c0,-5.348 -4.3416,-9.684 -9.6973,-9.684c-5.3557,0 -9.6973,4.336 -9.6973,9.684c0,5.349 4.3416,9.684 9.6973,9.684z"/>
 </g>
</svg>