<svg width="19" height="20" viewBox="0 0 19 20" fill="none" xmlns="http://www.w3.org/2000/svg">
<path fill-rule="evenodd" clip-rule="evenodd" d="M15.9945 11.922C15.5797 11.4695 15.0795 11.2276 14.5494 11.2276C14.0235 11.2276 13.519 11.4651 13.0872 11.9176L11.7362 13.3289C11.6251 13.2661 11.5139 13.2079 11.407 13.1496C11.2531 13.069 11.1078 12.9928 10.9838 12.9122C9.71829 12.0699 8.56823 10.9722 7.46519 9.55197C6.93078 8.84409 6.57165 8.24821 6.31086 7.64337C6.66143 7.30735 6.98636 6.95788 7.30273 6.62186C7.42244 6.49642 7.54215 6.36649 7.66186 6.24104C8.55968 5.30018 8.55968 4.08154 7.66186 3.14068L6.4947 1.91756C6.36216 1.77867 6.22535 1.6353 6.09709 1.49194C5.84057 1.21416 5.57123 0.927419 5.29333 0.658602C4.87863 0.228495 4.38269 0 3.8611 0C3.33951 0 2.83503 0.228495 2.40749 0.658602L2.39894 0.667563L0.945336 2.2043C0.398095 2.77778 0.0859974 3.4767 0.0175923 4.28763C-0.0850153 5.59588 0.282662 6.81452 0.564833 7.61201C1.25743 9.56989 2.29206 11.3844 3.83545 13.3289C5.70804 15.672 7.96113 17.5224 10.5349 18.8262C11.5182 19.3145 12.8307 19.8925 14.2972 19.991C14.3869 19.9955 14.481 20 14.5665 20C15.5541 20 16.3835 19.6281 17.0334 18.8889C17.0376 18.8799 17.0462 18.8754 17.0505 18.8665C17.2728 18.5842 17.5293 18.3289 17.7986 18.0556C17.9825 17.8719 18.1706 17.6792 18.3544 17.4776C18.7777 17.0161 19 16.4785 19 15.9274C19 15.3719 18.7734 14.8387 18.3416 14.3907L15.9945 11.922ZM16.1783 18.0824C16.4643 17.762 16.7255 17.4642 17.0034 17.1864L17.9944 16.0653C18.1418 15.9151 17.3881 16.7943 17.525 16.6398C17.9611 16.1649 17.9611 15.6944 17.5207 15.2375L15.165 12.7688L15.1565 12.7599C15.024 12.6075 14.8059 12.4328 14.5408 12.4328C14.2715 12.4328 14.0406 12.6165 13.8953 12.7688L12.4331 14.3011C12.3604 14.3772 12.1381 14.6102 11.7833 14.6102C11.6422 14.6102 11.5054 14.5744 11.36 14.4982C11.3515 14.4937 11.3429 14.4881 11.3344 14.4825C11.3258 14.4769 11.3173 14.4713 11.3087 14.4668C11.1847 14.3862 11.0394 14.31 10.8854 14.2294C10.7144 14.1398 10.5349 14.0457 10.3596 13.9292C8.98721 13.0197 7.74309 11.8324 6.5631 10.3091L6.55883 10.3047C5.90898 9.43996 5.48145 8.71416 5.1779 7.94355L5.16507 7.90323C5.08812 7.64785 5.01971 7.2715 5.38739 6.8862C5.39015 6.88041 5.39469 6.8765 5.39987 6.87203C5.40271 6.86959 5.40574 6.86697 5.40877 6.8638C5.78072 6.51434 6.12274 6.15591 6.48187 5.77061C6.56437 5.68714 6.64498 5.60168 6.72621 5.51556C6.76706 5.47225 6.80806 5.42878 6.84955 5.3853C7.30273 4.91039 7.30273 4.47133 6.84955 3.99642L5.68239 2.7733C5.61452 2.69995 5.54665 2.62771 5.4793 2.55602C5.41089 2.4832 5.34302 2.41095 5.27623 2.33871C5.01544 2.05645 4.76747 1.79211 4.50668 1.53674L4.49385 1.5233C4.35704 1.37993 4.139 1.20968 3.86965 1.20968C3.65161 1.20968 3.4293 1.32168 3.2198 1.52778L1.76192 3.05556C1.40707 3.42742 1.21468 3.86201 1.17193 4.3862C1.1078 5.20609 1.25316 6.07527 1.65076 7.19086C2.29634 9.01882 3.27111 10.7213 4.72899 12.5627C6.4947 14.7715 8.61953 16.5143 11.0394 17.7419C11.9243 18.1855 13.1043 18.7052 14.3741 18.7903C14.4382 18.7948 14.5066 18.7948 14.5708 18.7948C15.2377 18.7948 15.7252 18.5901 16.1783 18.0824Z" fill="#004A84"/>
</svg>
