<?xml version="1.0" encoding="UTF-8"?>
<svg width="55px" height="42px" viewBox="0 0 55 42" version="1.1" xmlns="http://www.w3.org/2000/svg" xmlns:xlink="http://www.w3.org/1999/xlink">
    <!-- Generator: Sketch 59.1 (86144) - https://sketch.com -->
    <title>comidaPerroIcono</title>
    <desc>Created with Sketch.</desc>
    <g id="Page-1" stroke="none" stroke-width="1" fill="none" fill-rule="evenodd">
        <g id="[S]internaCuidadoAnimal" transform="translate(-133.000000, -1529.000000)">
            <g id="Group-4-Copy" transform="translate(133.000000, 1522.000000)">
                <g id="Group-3">
                    <g id="comidaPerroIcono" transform="translate(0.000000, 7.000000)">
                        <path d="M27.1566418,41.6875928 L27.1566418,39.5875927 C40.5826428,39.5875927 49.2745434,36.3227925 51.6692435,33.2896923 C51.9737435,32.9039922 52.3104436,32.3369922 52.1865436,31.8196922 C52.0689435,31.3268921 51.8316435,30.1235921 51.5012435,28.4589919 C50.7529435,24.6768917 49.6217434,18.9620913 48.7985433,15.9996911 C48.6550433,15.5425911 47.2795432,13.9059909 45.6478431,13.0386909 L46.6334432,11.1850908 C48.4793433,12.1657908 50.4757434,14.192991 50.8222435,15.4375911 C51.6664435,18.4762913 52.8067436,24.2379917 53.5613436,28.0515919 C53.8742437,29.631492 54.1213437,30.8802921 54.2291437,31.3324921 C54.4055437,32.0695922 54.3894437,33.2329923 53.3177436,34.5909924 C50.5289434,38.1231926 41.3582428,41.6875928 27.1566418,41.6875928" id="Fill-1" fill="#2D304D"></path>
                        <path d="M27.1566418,41.6875928 C12.9550409,41.6875928 3.78434026,38.1231926 0.995540068,34.5909924 C-0.0768600052,33.2329923 -0.0922600063,32.0695922 0.0834400057,31.3324921 C0.191940013,30.8788921 0.43974003,29.627292 0.753340051,28.0424919 C1.5072401,24.2316917 2.64754018,18.4741913 3.49104024,15.4375911 C3.80604026,14.304291 5.74714039,12.1769908 7.77784053,11.1332908 L8.7382406,13.0008909 C7.10094048,13.8429909 5.65894039,15.5397911 5.51404038,16.0017911 C4.69224032,18.9599913 3.56104024,24.6705917 2.81344019,28.4505919 C2.48234017,30.1207921 2.24364015,31.3261921 2.12604014,31.8196922 C2.00284014,32.3369922 2.33954016,32.9046922 2.64404018,33.2896923 C5.03874034,36.3227925 13.7306409,39.5875927 27.1566418,39.5875927 L27.1566418,41.6875928 Z" id="Fill-4" fill="#2D304D"></path>
                        <path d="M27.1566418,23.5641716 C25.1700417,23.5641716 23.2072416,23.4598716 21.3235415,23.2540716 L21.5517415,21.1659714 C23.3598416,21.3633715 25.2456417,21.4641715 27.1566418,21.4641715 C34.6550424,21.4641715 42.0057429,19.9290714 45.0318431,17.7310712 L46.2652432,19.4306713 C42.8618429,21.9030715 35.1821424,23.5641716 27.1566418,23.5641716" id="Fill-7" fill="#2D304D"></path>
                        <path d="M30.1378097,15.8135611 L28.737802,15.8107611 C28.741302,13.8794609 27.4400019,12.1763608 25.5745017,11.6674608 C24.0996016,11.2663608 22.5113015,11.6849608 21.4249015,12.7601609 L20.4407014,11.7647608 C21.8820015,10.3402607 23.9897016,9.78586067 25.9427018,10.3164607 C28.4172019,10.9905607 30.1420021,13.2515609 30.1378097,15.8135611" id="Fill-9" fill="#F42F63"></path>
                        <path d="M13.5586509,23.2141716 C10.5955507,23.2141716 8.18405056,20.8033714 8.18405056,17.8395712 C8.18405056,16.6446711 8.57325058,15.5134711 9.29355063,14.580371 C7.93555054,13.4673709 7.14525049,11.8251708 7.14525049,10.0485707 C7.14525049,8.25097056 7.95095054,6.57447045 9.35655064,5.44747037 C10.5717507,4.4730703 12.1005508,4.03627027 13.6398509,4.19167029 C14.379051,1.72627012 16.6477511,7.00000048e-05 19.2720513,7.00000048e-05 C20.6958514,7.00000048e-05 22.0300515,0.501970034 23.0926516,1.4252701 C24.0838516,0.690970047 25.2836517,0.29337002 26.5345518,0.29337002 C28.3104519,0.29337002 29.986952,1.13197008 31.0789521,2.52497017 C32.0624522,1.81167012 33.2377523,1.4259701 34.4634523,1.4259701 C36.8161525,1.4259701 38.9175527,2.8700702 39.8023527,5.01557034 C40.2811527,4.88817033 40.7697528,4.82447033 41.2597528,4.82447033 C44.455953,4.82447033 47.0564532,7.42427051 47.0564532,10.6211707 C47.0564532,12.5601709 46.0939531,14.361971 44.480453,15.4413711 L43.702053,14.277971 C44.9263531,13.4589709 45.6564531,12.0918708 45.6564531,10.6211707 C45.6564531,8.19637056 43.684553,6.22447042 41.2597528,6.22447042 C40.7081528,6.22447042 40.1586527,6.33297043 39.6252527,6.54647045 L38.8944526,6.84047047 L38.6886526,6.07957041 C38.1699526,4.16437028 36.4325525,2.82597019 34.4634523,2.82597019 C33.3273523,2.82597019 32.2465522,3.26487022 31.4191521,4.06217028 L30.7751521,4.68307032 L30.3271521,3.90817027 C29.527052,2.52077017 28.1088519,1.69337012 26.5345518,1.69337012 C25.4152517,1.69337012 24.3505517,2.11267014 23.5350516,2.8756702 L23.0205516,3.35727023 L22.5424515,2.83997019 C21.6849515,1.91107013 20.5236514,1.4000701 19.2720513,1.4000701 C17.0950512,1.4000701 15.239351,2.9596702 14.859251,5.10867035 L14.731851,5.8289704 L14.017851,5.67077039 C12.6731509,5.37117037 11.2941508,5.68827039 10.2322507,6.54017045 C9.15985062,7.3990705 8.54525058,8.67797059 8.54525058,10.0485707 C8.54525058,11.6123708 9.35235064,13.0403709 10.7033507,13.8684709 L11.4782508,14.343771 L10.8202507,14.972371 C10.0236507,15.7325711 9.58405065,16.7517711 9.58405065,17.8395712 C9.58405065,20.0312714 11.3669508,21.8141715 13.5586509,21.8141715 C15.7503511,21.8141715 17.5332512,20.0312714 17.5332512,17.8395712 L18.9332513,17.8395712 C18.9332513,20.8033714 16.5224511,23.2141716 13.5586509,23.2141716" id="Fill-11" fill="#F42F63"></path>
                        <path d="M28.698882,12.7558209 L27.4871819,12.0544208 C28.4041819,10.4696207 30.041482,9.46372064 31.8670822,9.36362064 C33.7843823,9.26772063 35.6316824,10.1910207 36.6851825,11.8003208 L35.5133824,12.5668209 C34.7328824,11.3733208 33.3664823,10.6817207 31.9440822,10.7608207 C30.5916821,10.8357207 29.378582,11.5812208 28.698882,12.7558209" id="Fill-13" fill="#F42F63"></path>
                    </g>
                </g>
            </g>
        </g>
    </g>
</svg>