<?xml version="1.0" encoding="UTF-8"?>
<svg width="52px" height="74px" viewBox="0 0 52 74" version="1.1" xmlns="http://www.w3.org/2000/svg" xmlns:xlink="http://www.w3.org/1999/xlink">
    <!-- Generator: Sketch 59.1 (86144) - https://sketch.com -->
    <title>hecesIcono</title>
    <desc>Created with Sketch.</desc>
    <g id="Page-1" stroke="none" stroke-width="1" fill="none" fill-rule="evenodd">
        <g id="[S]internaCuidadoAnimal" transform="translate(-133.000000, -1598.000000)">
            <g id="Group-4-Copy" transform="translate(133.000000, 1522.000000)">
                <g id="Group-3-Copy-2" transform="translate(0.000000, 76.000000)">
                    <g id="hecesIcono">
                        <path d="M27.4610711,61.2566786 C16.8889507,61.2566786 6.18657026,57.3613584 6.18657026,49.9154781 C6.18657026,45.6972379 9.08037038,42.0242177 14.1254106,39.8378777 L15.0559506,41.9844377 C10.9063505,43.7831178 8.52657035,46.6737979 8.52657035,49.9154781 C8.52657035,55.5501983 18.1533308,58.9166785 27.4610711,58.9166785 C31.0412713,58.9166785 34.0801514,58.1405784 37.0230915,56.4729384 L38.1767116,58.5102984 C34.8671715,60.3838585 31.4616913,61.2566786 27.4610711,61.2566786" id="Fill-1" fill="#2D304D"></path>
                        <path d="M31.5214393,47.17019 L30.9294193,44.9066299 C34.2568994,44.0369298 36.1288995,42.5518098 36.3449595,40.6111697 C36.5454195,38.8007896 35.2069395,36.8227095 33.8294594,36.1121295 C32.7304394,35.5450695 31.4582593,35.2541295 30.1119793,34.9468095 C27.4396991,34.3376294 24.438259,33.6520094 22.3182189,30.5632093 C19.7410988,31.6076293 16.3738387,34.3781894 15.7623187,37.3765096 C15.3122586,39.5862496 16.3707187,41.7265697 18.9088388,43.7366298 L17.4549187,45.5704099 C13.3630386,42.3287298 13.0291985,39.0714496 13.4691186,36.9100695 C14.3707986,32.4866894 19.3003988,28.9096092 22.5116589,28.0282092 L23.395399,27.7848492 L23.843119,28.5859092 C25.4639591,31.4867293 27.8593392,32.0327293 30.6322393,32.6653094 C32.0619793,32.9913494 33.5408594,33.3290894 34.9035195,34.0326494 C36.9790995,35.1043695 39.0039796,37.8640096 38.6701396,40.8693497 C38.4805996,42.5744298 37.3004596,45.6601099 31.5214393,47.17019" id="Fill-3" fill="#2D304D"></path>
                        <path d="M25.9144091,73.6292731 C9.92986841,73.6292731 -0.000312000013,69.0787529 -0.000312000013,61.7537726 C-0.000312000013,56.3039123 4.18594817,53.3258722 7.33402831,51.5591721 L8.47906835,53.6004322 C4.23352818,55.9817723 2.3396881,58.4972724 2.3396881,61.7537726 C2.3396881,67.4571328 11.8135685,71.289273 25.9144091,71.289273 C41.5573097,71.289273 49.4891301,66.7535728 49.4891301,57.8077524 C49.4891301,51.7416922 42.9589698,45.4533319 36.8609295,43.3863318 L37.6120696,41.1695717 C44.4495499,43.4877318 51.8291302,50.5077321 51.8291302,57.8077524 C51.8291302,70.883673 37.7360896,73.6292731 25.9144091,73.6292731" id="Fill-5" fill="#2D304D"></path>
                        <path d="M14.1184686,25.003447 L12.9001085,24.030007 C16.1121487,20.0075468 14.7463686,18.1612868 13.1645285,16.0233067 C11.3603885,13.5865866 9.31600839,10.8238265 14.4920886,5.41920623 L15.6184087,6.49716627 C11.3525885,10.9525265 12.7051085,12.7808465 14.4187686,15.0958866 C16.0497487,17.3001667 18.0800888,20.0434268 14.1184686,25.003447" id="Fill-8" fill="#F42F63"></path>
                        <path d="M25.163737,20.3637728 L23.945377,19.3903328 C27.1574171,15.3678726 25.7916371,13.5216126 24.209797,11.3836325 C22.4056569,8.94691237 20.3612768,6.18415226 25.5373571,0.780312032 L26.6636771,1.85827208 C22.3978569,6.31363226 23.750377,8.14195234 25.4632571,10.4562124 C27.0950171,12.6604925 29.1253572,15.4037526 25.163737,20.3637728" id="Fill-10" fill="#F42F63"></path>
                        <path d="M36.7624155,25.003447 L35.5440555,24.030007 C38.7568756,20.0075468 37.3903156,18.1612868 35.8084755,16.0233067 C34.0043354,13.5865866 31.9599553,10.8238265 37.1360355,5.41998623 L38.2631356,6.49794627 C33.9965354,10.9533065 35.3490555,12.7816265 37.0627155,15.0958866 C38.6936956,17.3001667 40.7240357,20.0434268 36.7624155,25.003447" id="Fill-13" fill="#F42F63"></path>
                    </g>
                </g>
            </g>
        </g>
    </g>
</svg>