<?xml version="1.0" encoding="UTF-8"?>
<svg width="60px" height="38px" viewBox="0 0 60 38" version="1.1" xmlns="http://www.w3.org/2000/svg" xmlns:xlink="http://www.w3.org/1999/xlink">
    <!-- Generator: Sketch 59.1 (86144) - https://sketch.com -->
    <title>zapatosIcono</title>
    <desc>Created with Sketch.</desc>
    <g id="Page-1" stroke="none" stroke-width="1" fill="none" fill-rule="evenodd">
        <g id="[S]internaCuidadoAnimal" transform="translate(-135.000000, -1701.000000)">
            <g id="Group-4-Copy" transform="translate(133.000000, 1522.000000)">
                <g id="Group-3-Copy-3" transform="translate(2.000000, 170.000000)">
                    <g id="zapatosIcono" transform="translate(0.000000, 9.000000)">
                        <path d="M29.9135982,25.9874381 L31.2032083,26.6798081 C32.2282183,27.2297981 33.2072384,27.8705082 34.1534984,28.4910582 C35.4034185,29.3087982 36.5840385,30.0824383 37.8686086,30.6708583 C40.2418187,31.7582383 42.3857088,32.4216283 44.4231288,32.6975684 C51.5540991,33.6652484 55.0726493,32.1828583 55.5615293,31.7645383 C56.7560094,30.6626683 57.4886994,29.2968282 57.1718094,26.2217981 C56.9128794,23.709988 54.2454593,22.5671679 51.6662392,21.4627779 C51.2220891,21.2731479 50.7892791,21.0879279 50.3822991,20.9008179 C43.5638088,17.7653077 31.9220383,11.2429175 30.5568283,2.77697712 C30.5064283,2.70956711 30.0345583,2.4468571 28.7071482,2.52749711 C25.7033081,2.70578711 22.1211279,4.22093718 21.6618579,5.03426721 C21.6001179,5.14325721 21.5289279,5.24846722 21.4558479,5.35430722 C21.2939379,5.58803723 21.2807079,5.62520723 21.2863779,5.71025724 C21.3928479,7.41314731 21.5169579,10.2720874 21.6492579,13.2979776 C21.8766879,18.5357978 22.1601879,25.054408 22.4058879,26.3729981 C22.4128179,26.4089081 22.4241579,26.5034081 22.4373879,26.6432681 C22.6150479,28.5162582 22.897288,28.9125282 22.952098,28.9723782 C23.553118,29.6061582 25.032988,29.7920082 26.1134381,29.9274582 C26.3994581,29.9639982 26.6703581,29.9973882 26.9141681,30.0364483 C28.3171782,30.2569483 29.0334882,30.2815183 29.5242582,29.5538682 C29.7655482,29.1966582 29.7768882,28.6800582 29.7894882,28.0821882 C29.7945282,27.8686182 29.7989382,27.6556782 29.8134282,27.4471481 L29.9135982,25.9874381 Z M48.874079,34.9069785 C47.495009,34.9069785 45.9300889,34.8093284 44.1692388,34.5705584 C41.9447087,34.2694184 39.6263086,33.5556284 37.0817385,32.3888683 C35.6673885,31.7418583 34.3714784,30.8926183 33.1177784,30.0717283 C32.6093684,29.7384582 32.1154483,29.4146382 31.6208983,29.1084582 C31.5572683,29.6067882 31.4174083,30.1277983 31.0916983,30.6110083 C29.8745382,32.4159583 27.9152382,32.1072583 26.6199581,31.9031383 C26.3937881,31.8672283 26.1430481,31.8357283 25.8778181,31.8023383 C24.438898,31.6221583 22.6471779,31.3972483 21.5805879,30.2726983 C20.8976679,29.5526082 20.6796879,28.1243982 20.5555779,26.8215581 L20.5423479,26.6867381 C20.2783778,25.2692381 20.0150378,19.2256478 19.7605178,13.3805076 C19.6294778,10.3628074 19.5053678,7.51331731 19.4001578,5.82869724 C19.3529078,5.07143721 19.6962578,4.57562719 19.9016378,4.27889718 C19.9413278,4.22030718 19.9822778,4.16423717 20.0162978,4.10501717 C21.1761279,2.05184709 27.5044781,0.209727009 30.3325483,0.71435703 C31.9503883,1.00415704 32.3365783,1.94222708 32.4222583,2.4758371 C33.6482384,10.0755274 44.6952889,16.2060577 51.1716891,19.1828078 C51.5648091,19.3636178 51.9818692,19.5425378 52.4096392,19.7258678 C55.2030593,20.9216079 58.6793994,22.4096679 59.0517295,26.0277581 C59.3875195,29.2848582 58.7260194,31.4167783 56.8397994,33.1562084 C56.2419293,33.7074584 53.7023992,34.9069785 48.874079,34.9069785 L48.874079,34.9069785 Z" id="Fill-1" fill="#2D304D"></path>
                        <path d="M0.94896904,8.25759934 C0.913059038,7.68933932 1.12473905,7.2949593 1.44477906,7.05744929 C1.94625908,6.05889925 11.8164695,4.23819918 12.0949295,5.11452921 C14.5638996,12.8742395 24.70564,19.4596298 31.3830103,22.5296199 C34.2375404,23.84254 38.3501806,25.04773 38.7174706,28.6129002 C39.0312106,31.6532803 38.4295606,33.4513004 36.8054205,34.9494405 C36.2176305,35.4912405 32.5201604,37.1557005 24.9022,36.1218705 C22.5390699,35.8018305 20.2616198,35.0174805 18.0811898,34.0183004 C15.7048297,32.9296604 13.6510296,31.2280303 11.3622395,30.0001602 C11.3023895,30.8683003 11.4239795,31.8139303 10.9136795,32.5705604 C10.0461694,33.8563904 8.69670936,33.6661304 7.37244931,33.4576004 C6.04062925,33.2471804 3.88476916,33.1791404 2.87235912,32.1100303 C2.23101909,31.4340403 2.11509909,29.2063602 2.08296909,29.0343702 C1.68417907,26.8904801 1.24884905,13.0386695 0.94896904,8.25759934" id="Fill-4" fill="#FFFFFF"></path>
                        <path d="M10.5195514,28.4754342 L11.8085315,29.1678042 C12.8341715,29.7177942 13.8138216,30.3585043 14.7600816,30.9790543 C16.0100017,31.7974243 17.1899917,32.5704344 18.4745618,33.1588544 C20.8477719,34.2462344 22.991662,34.9096245 25.029082,35.1855645 C32.1600523,36.1532445 35.6786025,34.6708544 36.1674825,34.2525344 C37.3619626,33.1506644 38.0946526,31.7848243 37.7777626,28.7097942 C37.5188326,26.1979841 34.8514125,25.055794 32.2721923,23.950774 C31.8280423,23.761774 31.3952323,23.575924 30.9876223,23.388184 C23.524012,19.9572038 13.9952616,13.3321236 11.3360315,5.82189324 C9.6381814,5.68833324 3.32180114,6.89667329 2.22623109,7.60668332 L2.18843109,7.68228332 L2.00825108,7.81584333 C1.97171108,7.84293333 1.87406108,7.91538333 1.89233108,8.19825334 C1.99880108,9.90114341 2.12291109,12.7600835 2.25458109,15.7859737 C2.4826411,21.0237939 2.76614112,27.5424041 3.01184113,28.8609942 C3.01877113,28.8969042 3.03011113,28.9914042 3.04334113,29.1312642 C3.22100113,31.0042543 3.50324115,31.4005243 3.55805115,31.4603743 C4.15907117,32.0947843 5.63831123,32.2800043 6.71813128,32.4154543 C7.00415129,32.4513644 7.2756813,32.4853844 7.52012131,32.5244444 C8.92439137,32.7455744 9.6400714,32.7695144 10.1302114,32.0418643 C10.3715014,31.6846543 10.3828414,31.1680543 10.3954414,30.5701843 C10.4004814,30.3566143 10.4048914,30.1436743 10.4193814,29.9351442 L10.5195514,28.4754342 Z M29.4806622,37.3949776 C28.1015922,37.3956046 26.5360421,37.2973246 24.775192,37.0585545 C22.5506619,36.7574145 20.2322618,36.0436245 17.6876917,34.8768645 C16.2733417,34.2298544 14.9780616,33.3806144 13.7249916,32.5597244 C13.2159516,32.2264543 12.7220315,31.9026343 12.2268515,31.5958243 C12.1632215,32.0947843 12.0233615,32.6157944 11.6976515,33.0990044 C10.4798614,34.9039545 8.52245135,34.5965144 7.2252813,34.3911344 C6.99911129,34.3552244 6.74837128,34.3237244 6.48314127,34.2903344 C5.04359121,34.1101544 3.25250114,33.8858744 2.18591109,32.7606944 C1.50362106,32.0406043 1.28564105,30.6123943 1.16153105,29.3095542 L1.14830105,29.1747342 C0.884331037,27.7572342 0.620991026,21.7136439 0.366471015,15.8685037 C0.23543101,12.8508035 0.111321005,10.0013134 0.00611100025,8.31669335 C-0.0461790019,7.48824331 0.253071011,6.78201328 0.849051035,6.32337326 C2.4939811,4.8321632 10.0961914,3.83991316 11.5615715,3.95457316 C11.8551515,3.97788317 12.7478615,4.04907317 12.9960815,4.8283832 C15.2533716,11.9240735 24.523822,18.3362138 31.7776423,21.6708039 C32.1707623,21.8516139 32.5878224,22.0311639 33.0155924,22.2138639 C35.8090125,23.409604 39.2847226,24.897664 39.6576827,28.5157542 C39.9934727,31.7728543 39.3319726,33.9047744 37.4457526,35.6442045 C36.8478825,36.1954545 34.3077224,37.3949776 29.4806622,37.3949776 L29.4806622,37.3949776 Z" id="Fill-6" fill="#2D304D"></path>
                    </g>
                </g>
            </g>
        </g>
    </g>
</svg>